<svg xmlns="http://www.w3.org/2000/svg" width="297.94" height="518.65" viewBox="0 0 297.94 518.65">
  <title>feeling-financy-logo</title>
  <g style="isolation: isolate">
    <g id="Objects">
      <g id="Design">
        <g>
          <circle cx="23.58" cy="133.86" r="18.37" fill="#ffd71c"/>
          <circle cx="23.58" cy="133.86" r="13.54" fill="#ffe54e"/>
          <path d="M22.61,140.84a13,13,0,0,1-3-.69A10.7,10.7,0,0,1,17,138.77L18.84,136a11.22,11.22,0,0,0,2,1.13,8.24,8.24,0,0,0,1.94.59v-2.52a15.93,15.93,0,0,1-2.21-.67,5.78,5.78,0,0,1-1.59-.91,3.51,3.51,0,0,1-1-1.25,4.07,4.07,0,0,1-.33-1.7v0a4.23,4.23,0,0,1,.34-1.7,3.86,3.86,0,0,1,1-1.35,5,5,0,0,1,1.57-.93,7.4,7.4,0,0,1,2.13-.44V125h2.18v1.26a9.64,9.64,0,0,1,2.39.57,9.75,9.75,0,0,1,2,1.07l-1.72,2.81a7.69,7.69,0,0,0-1.37-.78,8.47,8.47,0,0,0-1.44-.48v2.43a14.16,14.16,0,0,1,2.19.68,5.87,5.87,0,0,1,1.56.92,3.41,3.41,0,0,1,.94,1.27,4.29,4.29,0,0,1,.31,1.7v0a4.06,4.06,0,0,1-.36,1.73,4,4,0,0,1-1,1.33,5,5,0,0,1-1.56.9,8,8,0,0,1-2,.44v2.06H22.61Zm.15-11.59a1.93,1.93,0,0,0-1.1.35.89.89,0,0,0-.32.7v0a.88.88,0,0,0,.28.68,2.92,2.92,0,0,0,1.14.49Zm1.95,8.57q1.4-.15,1.4-1.07v0a.9.9,0,0,0-.29-.69,2.85,2.85,0,0,0-1.11-.5Z" fill="#f9be2c"/>
        </g>
        <g>
          <circle cx="255.58" cy="151.86" r="18.37" fill="#ffd71c"/>
          <circle cx="255.58" cy="151.86" r="13.54" fill="#ffe54e"/>
          <path d="M254.61,158.84a13,13,0,0,1-3-.69,10.69,10.69,0,0,1-2.65-1.38l1.89-2.79a11.22,11.22,0,0,0,2,1.13,8.22,8.22,0,0,0,1.94.59v-2.52a15.93,15.93,0,0,1-2.21-.67,5.8,5.8,0,0,1-1.59-.91,3.52,3.52,0,0,1-1-1.25,4.07,4.07,0,0,1-.33-1.7v0a4.22,4.22,0,0,1,.34-1.7,3.87,3.87,0,0,1,1-1.35,5,5,0,0,1,1.57-.93,7.41,7.41,0,0,1,2.13-.44V143h2.18v1.26a9.63,9.63,0,0,1,2.39.57,9.75,9.75,0,0,1,2,1.07l-1.72,2.81a7.67,7.67,0,0,0-1.37-.78,8.44,8.44,0,0,0-1.44-.48v2.43a14.24,14.24,0,0,1,2.19.68,5.86,5.86,0,0,1,1.56.92,3.4,3.4,0,0,1,.94,1.27,4.29,4.29,0,0,1,.31,1.7v0a4.07,4.07,0,0,1-.36,1.73,4,4,0,0,1-1,1.33,5,5,0,0,1-1.56.9,8,8,0,0,1-2,.44v2.06h-2.18Zm.15-11.59a1.93,1.93,0,0,0-1.1.35.89.89,0,0,0-.33.7v0a.88.88,0,0,0,.28.68,2.93,2.93,0,0,0,1.14.49Zm1.95,8.57q1.41-.15,1.4-1.07v0a.9.9,0,0,0-.29-.69,2.86,2.86,0,0,0-1.11-.5Z" fill="#f9be2c"/>
        </g>
        <g opacity="0.3" style="mix-blend-mode: multiply">
          <path d="M297.94,492.62c0,9.93-64.58,26-146.85,26S0,502.55,0,492.62s66.69-18,149-18S297.94,482.7,297.94,492.62Z" fill="#798189" opacity="0" style="mix-blend-mode: multiply"/>
          <path d="M291.36,492.51c0,9.49-61.78,24.86-140.46,24.86S6.4,502,6.4,492.51s63.79-17.19,142.48-17.19S291.36,483,291.36,492.51Z" fill="#798189" opacity="0.05" style="mix-blend-mode: multiply"/>
          <path d="M284.78,492.4c0,9.06-59,23.69-134.08,23.69S12.8,501.46,12.8,492.4,73.68,476,148.79,476,284.78,483.34,284.78,492.4Z" fill="#798189" opacity="0.1" style="mix-blend-mode: multiply"/>
          <path d="M278.2,492.29c0,8.63-56.17,22.52-127.69,22.52S19.2,500.92,19.2,492.29s58-15.63,129.5-15.63S278.2,483.66,278.2,492.29Z" fill="#798189" opacity="0.14" style="mix-blend-mode: multiply"/>
          <path d="M271.63,492.18c0,8.2-53.36,21.36-121.3,21.36S25.6,500.38,25.6,492.18s55.07-14.84,123-14.84S271.63,484,271.63,492.18Z" fill="#798189" opacity="0.19" style="mix-blend-mode: multiply"/>
          <path d="M265,492.07c0,7.76-50.56,20.19-114.91,20.19S32,499.83,32,492.07,84.17,478,148.53,478,265,484.3,265,492.07Z" fill="#798189" opacity="0.24" style="mix-blend-mode: multiply"/>
          <path d="M258.47,492c0,7.33-47.75,19-108.52,19S38.4,499.29,38.4,492s49.26-13.28,110-13.28S258.47,484.63,258.47,492Z" fill="#798189" opacity="0.29" style="mix-blend-mode: multiply"/>
          <path d="M251.89,491.85c0,6.9-44.95,17.86-102.13,17.86s-105-11-105-17.86,46.36-12.49,103.55-12.49S251.89,484.95,251.89,491.85Z" fill="#798189" opacity="0.33" style="mix-blend-mode: multiply"/>
          <path d="M245.31,491.74c0,6.47-42.14,16.69-95.74,16.69S51.2,498.2,51.2,491.74,94.65,480,148.26,480,245.31,485.27,245.31,491.74Z" fill="#798189" opacity="0.38" style="mix-blend-mode: multiply"/>
          <path d="M238.73,491.63c0,6-39.34,15.53-89.36,15.53S57.6,497.66,57.6,491.63s40.55-10.93,90.57-10.93S238.73,485.59,238.73,491.63Z" fill="#798189" opacity="0.43" style="mix-blend-mode: multiply"/>
          <path d="M232.15,491.51c0,5.6-36.53,14.36-83,14.36S64,497.12,64,491.51s37.64-10.15,84.08-10.15S232.15,485.91,232.15,491.51Z" fill="#798189" opacity="0.48" style="mix-blend-mode: multiply"/>
          <path d="M225.57,491.4c0,5.17-33.73,13.19-76.58,13.19s-78.59-8-78.59-13.19S105.14,482,148,482,225.57,486.23,225.57,491.4Z" fill="#798189" opacity="0.52" style="mix-blend-mode: multiply"/>
          <path d="M219,491.29c0,4.74-30.92,12-70.19,12s-72-7.29-72-12,31.83-8.58,71.1-8.58S219,486.55,219,491.29Z" fill="#798189" opacity="0.57" style="mix-blend-mode: multiply"/>
          <path d="M212.42,491.18c0,4.31-28.12,10.86-63.8,10.86S83.2,495.49,83.2,491.18s28.93-7.8,64.61-7.8S212.42,486.88,212.42,491.18Z" fill="#798189" opacity="0.62" style="mix-blend-mode: multiply"/>
          <path d="M205.84,491.07c0,3.87-25.31,9.7-57.41,9.7s-58.82-5.82-58.82-9.7,26-7,58.12-7S205.84,487.2,205.84,491.07Z" fill="#798189" opacity="0.67" style="mix-blend-mode: multiply"/>
          <path d="M199.26,491c0,3.44-22.51,8.53-51,8.53S96,494.4,96,491s23.11-6.23,51.63-6.23S199.26,487.52,199.26,491Z" fill="#798189" opacity="0.71" style="mix-blend-mode: multiply"/>
          <path d="M192.68,490.85c0,3-19.71,7.36-44.63,7.36s-45.64-4.35-45.64-7.36,20.21-5.45,45.14-5.45S192.68,487.84,192.68,490.85Z" fill="#798189" opacity="0.76" style="mix-blend-mode: multiply"/>
          <path d="M186.1,490.74c0,2.58-16.9,6.2-38.25,6.2s-39.05-3.62-39.05-6.2,17.3-4.66,38.65-4.66S186.1,488.16,186.1,490.74Z" fill="#798189" opacity="0.81" style="mix-blend-mode: multiply"/>
          <path d="M179.52,490.63c0,2.14-14.1,5-31.86,5s-32.46-2.89-32.46-5,14.4-3.88,32.16-3.88S179.52,488.48,179.52,490.63Z" fill="#798189" opacity="0.86" style="mix-blend-mode: multiply"/>
          <path d="M172.94,490.52c0,1.71-11.29,3.86-25.47,3.86s-25.87-2.15-25.87-3.86,11.49-3.1,25.67-3.1S172.94,488.81,172.94,490.52Z" fill="#798189" opacity="0.9" style="mix-blend-mode: multiply"/>
          <path d="M166.36,490.4c0,1.28-8.49,2.7-19.08,2.7S128,491.68,128,490.4s8.59-2.32,19.18-2.32S166.36,489.13,166.36,490.4Z" fill="#798189" opacity="0.95" style="mix-blend-mode: multiply"/>
          <ellipse cx="147.09" cy="490.29" rx="12.69" ry="1.53" fill="#798189" style="mix-blend-mode: multiply"/>
        </g>
        <circle cx="42.67" cy="216.41" r="42.56" transform="translate(-154.08 116.69) rotate(-51.97)" fill="#edb1ae"/>
        <circle cx="251.71" cy="216.41" r="42.56" transform="translate(-79.89 201.03) rotate(-38.03)" fill="#edb1ae"/>
        <path d="M233.17,190.28c12-10.08,31.18-7.39,45.18-3.33-12.53-5.46-39-14.88-52.87-4.06a42.57,42.57,0,0,0-12.4,51.4C212.33,218.62,219.43,201.77,233.17,190.28Z" fill="#f9d8d4" opacity="0.2"/>
        <path d="M59.26,190.28c-12-10.08-31.18-7.39-45.18-3.33,12.53-5.46,39-14.88,52.87-4.06a42.57,42.57,0,0,1,12.4,51.4C80.09,218.62,73,201.77,59.26,190.28Z" fill="#f9d8d4" opacity="0.2"/>
        <g>
          <circle cx="236.67" cy="236.1" r="33.94" fill="#edb1ae" opacity="0.1" style="mix-blend-mode: multiply"/>
          <circle cx="58.14" cy="236.1" r="33.94" fill="#edb1ae" opacity="0.1" style="mix-blend-mode: multiply"/>
        </g>
        <g>
          <path d="M185.38,455.43c0,20.79,10.64,37.64,37.44,37.64,25.62,0,36.65-9.46,32.32-37.64-3.16-20.54,5.91-37.64-32.32-37.64A37.54,37.54,0,0,0,185.38,455.43Z" fill="#e8a9a7"/>
          <path d="M113,455.43c0,20.79-10.64,37.64-37.44,37.64-25.62,0-36.65-9.46-32.32-37.64,3.16-20.54-5.91-37.64,32.32-37.64A37.54,37.54,0,0,1,113,455.43Z" fill="#e8a9a7"/>
          <path d="M64.24,455.43c2.74-17.8-3.7-33,19.39-36.75a37.31,37.31,0,0,0-8.07-.89c-38.23,0-29.16,17.09-32.32,37.64-4.33,28.18,6.7,37.64,32.32,37.64a53.46,53.46,0,0,0,9.56-.82C67.74,489.45,60.62,479,64.24,455.43Z" fill="#f9d8d4" opacity="0.2"/>
          <path d="M234.14,455.43c-2.74-17.8,3.7-33-19.39-36.75a37.31,37.31,0,0,1,8.07-.89c38.23,0,29.16,17.09,32.32,37.64,4.33,28.18-6.7,37.64-32.32,37.64a53.46,53.46,0,0,1-9.56-.82C230.65,489.45,237.76,479,234.14,455.43Z" fill="#f9d8d4" opacity="0.2"/>
        </g>
        <path d="M157.55,178v27.16a8.51,8.51,0,1,1-17,0V178.11A148.13,148.13,0,0,0,1.47,326c0,81.84,66.11,148.18,148,148.18A148.18,148.18,0,0,0,157.55,178Z" fill="#edb1ae"/>
        <path d="M157.55,178v27.12a8.51,8.51,0,1,1-17,0v-27C62.55,183,1.47,247.24,1.47,325.75a147.87,147.87,0,0,0,148,148c81.84,0,148.16-66.24,148.16-148C297.59,246.77,235.55,182.25,157.55,178Z" fill="#edb1ae"/>
        <circle cx="149.19" cy="303.51" r="125.32" fill="#f9d8d4" opacity="0.2"/>
        <path d="M149.05,218c5.17,0,8.5-4.4,8.5-9.83V178c-2-.16-4.87-.25-7.76-.25-3.39,0-7.24.13-9.24.35v30C140.55,213.59,143.88,218,149.05,218Z" fill="#f9dcdc"/>
        <path d="M149.05,214a8.56,8.56,0,0,0,8.5-8.87V178c-2-.15-5.06-.23-7.8-.23-3.22,0-6.2.11-9.2.32v27.07A8.56,8.56,0,0,0,149.05,214Z" fill="#bf9190"/>
        <g>
          <circle cx="99.43" cy="279.47" r="9.46" fill="#1a1815"/>
          <circle cx="199.92" cy="279.47" r="9.46" fill="#1a1815"/>
        </g>
        <g>
          <path d="M160.78,41.18c-32.48-10-55.7,27.29-88.18,17.26L64.88,19C97.36,29,120.58-8.3,153.06,1.73Z" fill="#b7d02d"/>
          <path d="M153.35,34C126.13,30.33,105,57.68,77.76,54L72.31,26.18c27.22,3.65,48.37-23.7,75.59-20Z" fill="#99b528"/>
          <path d="M122.76,25.39c1.19,6.06-2.56,13.11-8.32,16s-11.45,0-12.64-6.12,2.57-13.05,8.33-15.92S121.56,19.28,122.76,25.39Z" fill="#b7d02d"/>
          <path d="M112.84,36.54a10.26,10.26,0,0,1-2.56.6,7.08,7.08,0,0,1-2.39-.16L109,33.86a7.24,7.24,0,0,0,1.78.2,6.25,6.25,0,0,0,1.67-.27L112,31.64a11.69,11.69,0,0,1-1.91.3,3.75,3.75,0,0,1-1.45-.15,2.11,2.11,0,0,1-1-.69,3.09,3.09,0,0,1-.55-1.33v0a4.28,4.28,0,0,1,0-1.59,4.78,4.78,0,0,1,.56-1.54,6.25,6.25,0,0,1,1.12-1.42A8.25,8.25,0,0,1,110.42,24l-.2-1,1.77-.87.21,1.08a7.67,7.67,0,0,1,2-.46,6.43,6.43,0,0,1,1.83.12l-.93,3.08a4.94,4.94,0,0,0-1.24-.12,6.25,6.25,0,0,0-1.25.16l.41,2.08a10.53,10.53,0,0,1,1.89-.28,3.78,3.78,0,0,1,1.42.17,2,2,0,0,1,1,.72,3.21,3.21,0,0,1,.54,1.33v0a4.18,4.18,0,0,1,0,1.62,5,5,0,0,1-.59,1.53,6.25,6.25,0,0,1-1.12,1.39,8.93,8.93,0,0,1-1.57,1.18l.35,1.76-1.77.87Zm-1.82-10a2.27,2.27,0,0,0-.84.73A1,1,0,0,0,110,28v0a.59.59,0,0,0,.34.47,2,2,0,0,0,1,0Zm3,6.57q1.12-.68,1-1.47v0a.59.59,0,0,0-.35-.48,2,2,0,0,0-1,0Z" fill="#99b528"/>
        </g>
        <g>
          <path d="M114.8,172.91c-16.3-15.76-41.36-.56-57.65-16.32l7.3-25.79c16.3,15.76,41.36.56,57.65,16.31Z" fill="#b7d02d"/>
          <path d="M112.55,166.39c-15.09-10.38-35.91-.48-51-10.86l5.15-18.21c15.09,10.38,35.91.49,51,10.86Z" fill="#99b528"/>
          <path d="M96.94,152.06c-1.12,4-5.47,7-9.76,7s-6.8-3.46-5.67-7.45,5.46-7,9.75-7S98.07,148.06,96.94,152.06Z" fill="#b7d02d"/>
          <path d="M87.68,155.7a6.85,6.85,0,0,1-1.7-.42,4.72,4.72,0,0,1-1.37-.81l1.58-1.53a4.84,4.84,0,0,0,1,.66,4.15,4.15,0,0,0,1.07.35l.4-1.41a7.83,7.83,0,0,1-1.23-.4,2.49,2.49,0,0,1-.81-.53,1.4,1.4,0,0,1-.38-.71,2.06,2.06,0,0,1,.07-1v0a2.87,2.87,0,0,1,.47-.95,3.17,3.17,0,0,1,.8-.74,4.16,4.16,0,0,1,1.1-.5,5.55,5.55,0,0,1,1.35-.23l.19-.67,1.31,0-.2.71a5.1,5.1,0,0,1,1.35.34,4.27,4.27,0,0,1,1.05.62l-1.48,1.55a3.27,3.27,0,0,0-.7-.45,4.14,4.14,0,0,0-.79-.28l-.39,1.36a7,7,0,0,1,1.21.4,2.52,2.52,0,0,1,.79.53,1.35,1.35,0,0,1,.37.72,2.15,2.15,0,0,1-.08,1v0a2.79,2.79,0,0,1-.49,1,3.32,3.32,0,0,1-.82.73,4.17,4.17,0,0,1-1.08.49,5.94,5.94,0,0,1-1.29.23l-.33,1.15-1.31,0Zm1.93-6.49a1.51,1.51,0,0,0-.72.18.69.69,0,0,0-.31.39v0a.4.4,0,0,0,.06.38,1.36,1.36,0,0,0,.61.29ZM89.43,154q.87-.07,1-.59v0a.39.39,0,0,0-.07-.39,1.33,1.33,0,0,0-.59-.29Z" fill="#99b528"/>
        </g>
        <g>
          <path d="M226.19,153.07c-16.15-29.91-58.86-19.55-75-49.47L173.31,70c16.15,29.91,58.86,19.55,75,49.47Z" fill="#b7d02d"/>
          <path d="M225.93,142.73c-16.86-21.68-51.12-17-68-38.66l15.62-23.69c16.86,21.68,51.12,17,68,38.66Z" fill="#99b528"/>
          <path d="M210.12,115.16c-3.4,5.16-11,7.57-17.13,5.58s-8.16-8-4.73-13.23,11-7.52,17.1-5.53S213.55,110,210.12,115.16Z" fill="#b7d02d"/>
          <path d="M195.24,116.16A10.12,10.12,0,0,1,193,114.8a7,7,0,0,1-1.6-1.78l2.95-1.48a7.25,7.25,0,0,0,1.13,1.39,6.22,6.22,0,0,0,1.38,1l1.21-1.83a12,12,0,0,1-1.57-1.12,3.79,3.79,0,0,1-.92-1.12,2.09,2.09,0,0,1-.22-1.19,3.08,3.08,0,0,1,.54-1.33l0,0a4.24,4.24,0,0,1,1.1-1.14,4.84,4.84,0,0,1,1.48-.7,6.28,6.28,0,0,1,1.79-.23,8.39,8.39,0,0,1,2,.29l.57-.87,1.87.62-.61.92a7.75,7.75,0,0,1,1.78,1.1,6.44,6.44,0,0,1,1.22,1.37l-2.82,1.55a5,5,0,0,0-.8-1,6.16,6.16,0,0,0-1-.76l-1.17,1.77a10.39,10.39,0,0,1,1.55,1.12,3.75,3.75,0,0,1,.89,1.12,2.05,2.05,0,0,1,.2,1.2,3.24,3.24,0,0,1-.55,1.33l0,0a4.15,4.15,0,0,1-1.13,1.16,5,5,0,0,1-1.5.68,6.22,6.22,0,0,1-1.77.21,9,9,0,0,1-1.94-.26l-1,1.5-1.87-.62Zm5.7-8.41a2.25,2.25,0,0,0-1.11-.06,1,1,0,0,0-.62.42l0,0a.58.58,0,0,0-.08.58,2,2,0,0,0,.74.68Zm-2.45,6.8q1.27.29,1.72-.38l0,0a.6.6,0,0,0,.08-.59,1.94,1.94,0,0,0-.71-.68Z" fill="#99b528"/>
        </g>
        <g>
          <circle cx="114.06" cy="92.06" r="32.37" fill="#ffd71c"/>
          <circle cx="114.06" cy="92.06" r="23.86" fill="#ffe54e"/>
          <path d="M112.47,104.36a22.85,22.85,0,0,1-5.3-1.22,18.87,18.87,0,0,1-4.67-2.44l3.33-4.91a19.76,19.76,0,0,0,3.45,2,14.42,14.42,0,0,0,3.42,1V94.39a27.82,27.82,0,0,1-3.9-1.18A10.22,10.22,0,0,1,106,91.6a6.21,6.21,0,0,1-1.7-2.2,7.18,7.18,0,0,1-.57-3v-.08a7.42,7.42,0,0,1,.59-3A6.78,6.78,0,0,1,106,81a8.71,8.71,0,0,1,2.77-1.65,13.1,13.1,0,0,1,3.75-.78V76.44h3.84v2.22a16.72,16.72,0,0,1,7.79,2.88l-3,4.95a13.41,13.41,0,0,0-2.42-1.36,15,15,0,0,0-2.53-.85v4.28a24.9,24.9,0,0,1,3.86,1.2,10.32,10.32,0,0,1,2.75,1.63,6,6,0,0,1,1.66,2.23,7.6,7.6,0,0,1,.55,3v.07a7.12,7.12,0,0,1-.63,3,7,7,0,0,1-1.77,2.35,8.75,8.75,0,0,1-2.75,1.59,14.17,14.17,0,0,1-3.56.78v3.62h-3.84Zm.26-20.43a3.39,3.39,0,0,0-1.94.61,1.57,1.57,0,0,0-.57,1.24v.07a1.56,1.56,0,0,0,.5,1.2,5.19,5.19,0,0,0,2,.87ZM116.17,99q2.47-.26,2.48-1.88v-.07a1.59,1.59,0,0,0-.52-1.22,5.06,5.06,0,0,0-2-.89Z" fill="#f9be2c"/>
        </g>
        <g>
          <circle cx="186.31" cy="30.45" r="21.72" fill="#ffd71c"/>
          <circle cx="186.31" cy="30.45" r="16.01" fill="#ffe54e"/>
          <path d="M185.19,38.7a15.26,15.26,0,0,1-3.56-.82,12.72,12.72,0,0,1-3.14-1.63l2.23-3.3A13.07,13.07,0,0,0,183,34.29a9.7,9.7,0,0,0,2.29.69V32a18.81,18.81,0,0,1-2.62-.79,6.87,6.87,0,0,1-1.88-1.08,4.16,4.16,0,0,1-1.14-1.48,4.81,4.81,0,0,1-.38-2v-.05a5,5,0,0,1,.4-2,4.6,4.6,0,0,1,1.15-1.6,5.84,5.84,0,0,1,1.86-1.1,8.75,8.75,0,0,1,2.52-.52V20h2.58v1.49A11.23,11.23,0,0,1,193,23.39l-2,3.32a9.1,9.1,0,0,0-1.62-.92,10.18,10.18,0,0,0-1.7-.57V28.1a16.94,16.94,0,0,1,2.59.81A7,7,0,0,1,192.13,30a4.05,4.05,0,0,1,1.12,1.5,5.06,5.06,0,0,1,.37,2v.05A4.62,4.62,0,0,1,192,37.17a5.89,5.89,0,0,1-1.85,1.06,9.53,9.53,0,0,1-2.39.52v2.43h-2.58Zm.17-13.7a2.26,2.26,0,0,0-1.3.41,1.06,1.06,0,0,0-.38.83v0a1,1,0,0,0,.33.8,3.48,3.48,0,0,0,1.35.58Zm2.3,10.14c1.11-.12,1.66-.54,1.66-1.27v0A1.08,1.08,0,0,0,189,33a3.38,3.38,0,0,0-1.31-.59Z" fill="#f9be2c"/>
        </g>
        <g>
          <rect x="142.55" y="141.15" width="12" height="43" rx="5.91" ry="5.91" fill="#ffd71c"/>
          <path d="M151.55,176.65a4.5,4.5,0,0,1-4.5,4.5h0a4.5,4.5,0,0,1-4.5-4.5v-29a4.5,4.5,0,0,1,4.5-4.5h0a4.5,4.5,0,0,1,4.5,4.5Z" fill="#ffe54e"/>
        </g>
        <ellipse cx="148.96" cy="346.15" rx="57.5" ry="44" fill="#ffefee"/>
        <ellipse cx="148.96" cy="347.15" rx="57.5" ry="44" fill="#f9d8d4"/>
        <g>
          <circle cx="125.54" cy="345.28" r="12.63" fill="#c44e52"/>
          <circle cx="172.99" cy="345.28" r="12.63" fill="#c44e52"/>
        </g>
      </g>
    </g>
  </g>
</svg>
